<?xml version="1.0" standalone="no"?>
<!DOCTYPE svg PUBLIC "-//W3C//DTD SVG 20010904//EN"
 "http://www.w3.org/TR/2001/REC-SVG-20010904/DTD/svg10.dtd">
<svg version="1.0" xmlns="http://www.w3.org/2000/svg"
 width="217.000000pt" height="232.000000pt" viewBox="0 0 217.000000 232.000000"
 preserveAspectRatio="xMidYMid meet">

<g transform="translate(0.000000,232.000000) scale(0.100000,-0.100000)"
fill="#000000" stroke="none">
<path d="M567 2309 c-177 -42 -317 -217 -317 -396 l0 -63 145 0 145 0 0 50 c0
43 5 56 34 88 l34 37 571 3 c632 3 611 5 651 -61 19 -31 20 -56 20 -805 0
-853 3 -812 -63 -852 -31 -19 -54 -20 -590 -20 -607 0 -591 -1 -636 56 -15 19
-21 41 -21 75 l0 49 -145 0 -145 0 0 -65 c0 -187 143 -355 336 -395 33 -7 253
-10 640 -8 584 3 589 3 644 25 120 49 214 151 251 273 19 63 19 92 17 885 l-3
820 -32 68 c-37 77 -116 163 -184 197 -95 49 -106 50 -729 49 -322 -1 -602 -5
-623 -10z"/>
<path d="M880 1455 l195 -195 -523 0 -522 0 0 -100 0 -100 522 0 523 0 -195
-195 -195 -195 140 0 140 0 245 245 245 245 -245 245 -245 245 -140 0 -140 0
195 -195z"/>
</g>
</svg>
