<?xml version="1.0" standalone="no"?>
<!DOCTYPE svg PUBLIC "-//W3C//DTD SVG 20010904//EN"
 "http://www.w3.org/TR/2001/REC-SVG-20010904/DTD/svg10.dtd">
<svg version="1.0" xmlns="http://www.w3.org/2000/svg"
 width="512.000000pt" height="512.000000pt" viewBox="0 0 512.000000 512.000000"
 preserveAspectRatio="xMidYMid meet">

<g transform="translate(0.000000,512.000000) scale(0.100000,-0.100000)"
fill="#000000" stroke="none">
<path d="M2963 4410 c-12 -5 -29 -19 -37 -32 -20 -30 -29 -144 -19 -227 13
-106 -15 -101 573 -101 387 0 506 -3 546 -14 161 -43 287 -170 329 -333 23
-88 22 -2132 -1 -2233 -28 -127 -125 -242 -254 -304 l-65 -31 -538 -5 -539 -5
-23 -27 c-28 -33 -39 -112 -30 -214 7 -66 11 -77 38 -100 l30 -25 546 3 c531
4 548 5 619 26 257 78 474 286 556 532 45 135 48 220 44 1345 -5 1191 1 1107
-90 1293 -40 82 -66 120 -130 187 -44 47 -101 100 -126 119 -69 50 -176 101
-267 127 -78 22 -94 23 -610 26 -307 1 -539 -1 -552 -7z"/>
<path d="M1915 4308 c-35 -19 -66 -52 -86 -90 -18 -35 -19 -64 -19 -468 l0
-430 -657 0 c-740 0 -710 3 -769 -76 l-29 -37 -3 -591 c-2 -325 0 -606 3 -624
7 -40 59 -101 102 -118 26 -11 161 -14 692 -14 l660 0 3 -443 3 -443 24 -36
c50 -72 130 -103 207 -78 32 10 191 163 843 814 550 549 809 814 822 841 23
49 24 94 4 143 -19 45 -1592 1623 -1641 1647 -37 17 -130 19 -159 3z"/>
</g>
</svg>
