<svg width="150" height="15" viewBox="0 0 150 15" fill="none" xmlns="http://www.w3.org/2000/svg">
<path d="M11.8481 4.08105C12.9614 4.08105 13.8022 4.36816 14.3706 4.94238C14.9448 5.51074 15.2319 6.4248 15.2319 7.68457V14.0918H12.5425V8.35254C12.5425 7.64941 12.4224 7.11914 12.1821 6.76172C11.9419 6.4043 11.5698 6.22559 11.0659 6.22559C10.3569 6.22559 9.85303 6.48047 9.5542 6.99023C9.25537 7.49414 9.10596 8.21777 9.10596 9.16113V14.0918H6.42529V8.35254C6.42529 7.88379 6.37256 7.49121 6.26709 7.1748C6.16162 6.8584 6.00049 6.62109 5.78369 6.46289C5.56689 6.30469 5.28857 6.22559 4.94873 6.22559C4.45068 6.22559 4.05811 6.35156 3.771 6.60352C3.48975 6.84961 3.2876 7.21582 3.16455 7.70215C3.04736 8.18262 2.98877 8.77148 2.98877 9.46875V14.0918H0.308105V4.26562H2.35596L2.71631 5.52246H2.86572C3.06494 5.18262 3.31396 4.90723 3.61279 4.69629C3.91748 4.48535 4.25146 4.33008 4.61475 4.23047C4.97803 4.13086 5.34717 4.08105 5.72217 4.08105C6.44287 4.08105 7.05225 4.19824 7.55029 4.43262C8.0542 4.66699 8.44092 5.03027 8.71045 5.52246H8.94775C9.24072 5.01855 9.65381 4.65234 10.187 4.42383C10.7261 4.19531 11.2798 4.08105 11.8481 4.08105ZM23.5728 4.08105C24.6216 4.08105 25.4653 4.36816 26.104 4.94238C26.7427 5.51074 27.062 6.4248 27.062 7.68457V14.0918H24.3813V8.35254C24.3813 7.64941 24.2524 7.11914 23.9946 6.76172C23.7427 6.4043 23.3442 6.22559 22.7993 6.22559C21.979 6.22559 21.4194 6.50391 21.1206 7.06055C20.8218 7.61719 20.6724 8.41992 20.6724 9.46875V14.0918H17.9917V4.26562H20.0396L20.3999 5.52246H20.5493C20.7603 5.18262 21.021 4.90723 21.3315 4.69629C21.6479 4.48535 21.9966 4.33008 22.3774 4.23047C22.7642 4.13086 23.1626 4.08105 23.5728 4.08105ZM33.8735 4.08105C34.7817 4.08105 35.564 4.25684 36.2202 4.6084C36.8765 4.9541 37.3833 5.45801 37.7407 6.12012C38.0981 6.78223 38.2769 7.59082 38.2769 8.5459V9.84668H31.9399C31.9692 10.6025 32.1948 11.1973 32.6167 11.6309C33.0444 12.0586 33.6362 12.2725 34.3921 12.2725C35.019 12.2725 35.5933 12.208 36.1147 12.0791C36.6362 11.9502 37.1724 11.7568 37.7231 11.499V13.5732C37.2368 13.8135 36.7271 13.9893 36.1938 14.1006C35.6665 14.2119 35.0249 14.2676 34.269 14.2676C33.2847 14.2676 32.4116 14.0859 31.6499 13.7227C30.894 13.3594 30.2993 12.8057 29.8657 12.0615C29.438 11.3174 29.2241 10.3799 29.2241 9.24902C29.2241 8.10059 29.4175 7.14551 29.8042 6.38379C30.1968 5.61621 30.7417 5.04199 31.439 4.66113C32.1362 4.27441 32.9478 4.08105 33.8735 4.08105ZM33.8911 5.98828C33.3696 5.98828 32.936 6.15527 32.5903 6.48926C32.2505 6.82324 32.0542 7.34766 32.0015 8.0625H35.7632C35.7573 7.66406 35.6841 7.30957 35.5435 6.99902C35.4087 6.68848 35.2036 6.44238 34.9282 6.26074C34.6587 6.0791 34.313 5.98828 33.8911 5.98828ZM51.9966 4.08105C53.1099 4.08105 53.9507 4.36816 54.519 4.94238C55.0933 5.51074 55.3804 6.4248 55.3804 7.68457V14.0918H52.6909V8.35254C52.6909 7.64941 52.5708 7.11914 52.3306 6.76172C52.0903 6.4043 51.7183 6.22559 51.2144 6.22559C50.5054 6.22559 50.0015 6.48047 49.7026 6.99023C49.4038 7.49414 49.2544 8.21777 49.2544 9.16113V14.0918H46.5737V8.35254C46.5737 7.88379 46.521 7.49121 46.4155 7.1748C46.3101 6.8584 46.1489 6.62109 45.9321 6.46289C45.7153 6.30469 45.437 6.22559 45.0972 6.22559C44.5991 6.22559 44.2065 6.35156 43.9194 6.60352C43.6382 6.84961 43.436 7.21582 43.313 7.70215C43.1958 8.18262 43.1372 8.77148 43.1372 9.46875V14.0918H40.4565V4.26562H42.5044L42.8647 5.52246H43.0142C43.2134 5.18262 43.4624 4.90723 43.7612 4.69629C44.0659 4.48535 44.3999 4.33008 44.7632 4.23047C45.1265 4.13086 45.4956 4.08105 45.8706 4.08105C46.5913 4.08105 47.2007 4.19824 47.6987 4.43262C48.2026 4.66699 48.5894 5.03027 48.8589 5.52246H49.0962C49.3892 5.01855 49.8022 4.65234 50.3354 4.42383C50.8745 4.19531 51.4282 4.08105 51.9966 4.08105ZM67.0698 9.16113C67.0698 9.98145 66.9585 10.708 66.7358 11.3408C66.519 11.9736 66.1997 12.5098 65.7778 12.9492C65.3618 13.3828 64.8579 13.7109 64.2661 13.9336C63.6802 14.1562 63.0181 14.2676 62.2798 14.2676C61.5884 14.2676 60.9526 14.1562 60.3726 13.9336C59.7983 13.7109 59.2974 13.3828 58.8696 12.9492C58.4478 12.5098 58.1196 11.9736 57.8853 11.3408C57.6567 10.708 57.5425 9.98145 57.5425 9.16113C57.5425 8.07129 57.7358 7.14844 58.1226 6.39258C58.5093 5.63672 59.0601 5.0625 59.7749 4.66992C60.4897 4.27734 61.3423 4.08105 62.3325 4.08105C63.2524 4.08105 64.0669 4.27734 64.7759 4.66992C65.4907 5.0625 66.0503 5.63672 66.4546 6.39258C66.8647 7.14844 67.0698 8.07129 67.0698 9.16113ZM60.2759 9.16113C60.2759 9.80566 60.3462 10.3477 60.4868 10.7871C60.6274 11.2266 60.8472 11.5576 61.146 11.7803C61.4448 12.0029 61.8345 12.1143 62.3149 12.1143C62.7896 12.1143 63.1733 12.0029 63.4663 11.7803C63.7651 11.5576 63.9819 11.2266 64.1167 10.7871C64.2573 10.3477 64.3276 9.80566 64.3276 9.16113C64.3276 8.51074 64.2573 7.97168 64.1167 7.54395C63.9819 7.11035 63.7651 6.78516 63.4663 6.56836C63.1675 6.35156 62.7778 6.24316 62.2974 6.24316C61.5884 6.24316 61.0728 6.48633 60.7505 6.97266C60.4341 7.45898 60.2759 8.18848 60.2759 9.16113ZM72.0444 13.5029C72.3198 13.5029 72.5747 13.4824 72.8091 13.4414C73.0493 13.4004 73.2603 13.3477 73.4419 13.2832V14.0215C73.2544 14.0859 73.0347 14.1416 72.7827 14.1885C72.5308 14.2412 72.2524 14.2676 71.9478 14.2676C71.4087 14.2676 70.9604 14.168 70.603 13.9688C70.2456 13.7637 69.9761 13.4561 69.7944 13.0459C69.6128 12.6299 69.522 12.1025 69.522 11.4639V5.27637H68.0981V4.74902L69.5132 4.47656L69.8208 2.22656H70.4097V4.53809H73.3892V5.27637H70.4097V11.4111C70.4097 12.0967 70.5356 12.6182 70.7876 12.9756C71.0454 13.3271 71.4644 13.5029 72.0444 13.5029ZM79.1108 4.35352C79.9253 4.35352 80.6021 4.54395 81.1411 4.9248C81.686 5.30566 82.0903 5.82715 82.354 6.48926C82.6235 7.15137 82.7583 7.91016 82.7583 8.76562V9.40723H75.8589C75.8589 10.7197 76.1606 11.7275 76.7642 12.4307C77.3735 13.1338 78.2437 13.4854 79.3745 13.4854C79.9663 13.4854 80.479 13.4385 80.9126 13.3447C81.3521 13.2451 81.8384 13.0781 82.3716 12.8438V13.6611C81.9028 13.8721 81.4341 14.0244 80.9653 14.1182C80.4966 14.2178 79.9575 14.2676 79.3481 14.2676C78.3813 14.2676 77.5698 14.0684 76.9136 13.6699C76.2632 13.2656 75.771 12.6973 75.437 11.9648C75.1089 11.2324 74.9448 10.377 74.9448 9.39844C74.9448 8.44336 75.103 7.58496 75.4194 6.82324C75.7417 6.06152 76.2104 5.46094 76.8257 5.02148C77.4468 4.57617 78.2085 4.35352 79.1108 4.35352ZM79.1021 5.11816C78.188 5.11816 77.4468 5.42285 76.8784 6.03223C76.3159 6.63574 75.9849 7.50879 75.8853 8.65137H81.8354C81.8354 7.9541 81.7358 7.33887 81.5366 6.80566C81.3374 6.27246 81.0356 5.85938 80.6313 5.56641C80.2329 5.26758 79.7231 5.11816 79.1021 5.11816ZM89.2183 14.2676C88.269 14.2676 87.4663 14.0713 86.8101 13.6787C86.1597 13.2803 85.6675 12.7148 85.3335 11.9824C85.0054 11.2441 84.8413 10.3711 84.8413 9.36328C84.8413 8.31445 85.0317 7.41797 85.4126 6.67383C85.7935 5.92383 86.3296 5.34961 87.021 4.95117C87.7124 4.55273 88.5239 4.35352 89.4556 4.35352C89.9126 4.35352 90.3374 4.39453 90.73 4.47656C91.1226 4.55859 91.4771 4.67285 91.7935 4.81934L91.5562 5.60156C91.228 5.45508 90.8794 5.34375 90.5103 5.26758C90.1411 5.19141 89.7866 5.15332 89.4468 5.15332C88.6616 5.15332 87.9937 5.32617 87.4429 5.67188C86.8979 6.01172 86.479 6.49805 86.186 7.13086C85.8989 7.75781 85.7554 8.49902 85.7554 9.35449C85.7554 10.1572 85.8784 10.8691 86.1245 11.4902C86.3706 12.1055 86.7485 12.5918 87.2583 12.9492C87.7681 13.3008 88.4214 13.4766 89.2183 13.4766C89.6812 13.4766 90.1206 13.4297 90.5366 13.3359C90.9585 13.2422 91.3423 13.1221 91.688 12.9756V13.7842C91.3774 13.9248 91.0171 14.0391 90.6069 14.127C90.2026 14.2207 89.7397 14.2676 89.2183 14.2676ZM94.8345 0.416016V4.88086C94.8345 5.13867 94.8286 5.37891 94.8169 5.60156C94.811 5.82422 94.7993 6.0498 94.7817 6.27832H94.8433C95.0015 5.91504 95.2271 5.58984 95.52 5.30273C95.8188 5.01562 96.1851 4.78711 96.6187 4.61719C97.0581 4.44727 97.5649 4.3623 98.1392 4.3623C98.8657 4.3623 99.4751 4.48828 99.9673 4.74023C100.465 4.98633 100.843 5.36426 101.101 5.87402C101.359 6.38379 101.488 7.04004 101.488 7.84277V14.0918H100.609V7.89551C100.609 6.94629 100.392 6.24902 99.9585 5.80371C99.5249 5.3584 98.895 5.13574 98.0688 5.13574C97.3657 5.13574 96.7739 5.27344 96.2935 5.54883C95.813 5.81836 95.4497 6.22852 95.2036 6.7793C94.9575 7.32422 94.8345 8.00684 94.8345 8.82715V14.0918H93.9468V0.416016H94.8345ZM121.532 14.0918V12.7598H115.646C118.994 10.1138 121.478 7.8818 121.478 5.4338C121.478 3.0398 119.444 1.9058 117.446 1.9058C115.754 1.9058 114.188 2.5718 113.27 3.7958L114.188 4.7498C114.89 3.8498 116.006 3.2378 117.446 3.2378C118.688 3.2378 119.966 3.8858 119.966 5.4338C119.966 7.5038 117.608 9.5018 113.288 12.8858V14.0918H121.532ZM128.406 14.3078C131.682 14.3078 132.996 11.0138 132.996 8.0978C132.996 5.1638 131.682 1.9058 128.406 1.9058C125.112 1.9058 123.816 5.1638 123.816 8.0978C123.816 11.0138 125.112 14.3078 128.406 14.3078ZM128.406 12.9758C126.12 12.9758 125.346 10.4918 125.346 8.0978C125.346 5.7038 126.12 3.2378 128.406 3.2378C130.692 3.2378 131.466 5.7038 131.466 8.0978C131.466 10.4918 130.692 12.9758 128.406 12.9758ZM143.135 14.0918V12.7598H137.249C140.597 10.1138 143.081 7.8818 143.081 5.4338C143.081 3.0398 141.047 1.9058 139.049 1.9058C137.357 1.9058 135.791 2.5718 134.873 3.7958L135.791 4.7498C136.493 3.8498 137.609 3.2378 139.049 3.2378C140.291 3.2378 141.569 3.8858 141.569 5.4338C141.569 7.5038 139.211 9.5018 134.891 12.8858V14.0918H143.135ZM149.199 14.0918V2.0858H147.885L144.879 5.1818L145.779 6.0998L147.705 4.0478V14.0918H149.199Z" fill="black"/>
</svg>
