<svg width="380" height="188" viewBox="0 0 380 188" fill="none" xmlns="http://www.w3.org/2000/svg">
<path d="M78.588 50.66C79.2813 50.66 79.8146 50.98 80.188 51.62C80.6146 52.26 80.828 53.14 80.828 54.26C80.828 56.34 80.3213 57.9933 79.308 59.22C76.588 62.58 73.868 65.0333 71.148 66.58C68.4813 68.1267 65.628 68.9 62.588 68.9C58.0546 68.9 54.5346 67.5667 52.028 64.9C49.5213 62.18 48.268 58.5533 48.268 54.02C48.268 51.1933 48.908 46.6333 50.188 40.34L53.148 25.7C54.6413 18.34 55.4946 13.3 55.708 10.58C52.188 10.42 48.028 10.34 43.2279 10.34C40.3479 10.34 38.268 10.3667 36.988 10.42C35.068 20.1267 33.2546 29.9667 31.548 39.94C30.9613 43.5667 30.348 47.78 29.708 52.58C29.068 57.3267 28.6413 61.1667 28.428 64.1C28.3213 65.6467 27.6813 66.8467 26.5079 67.7C25.3346 68.5 23.9213 68.9 22.2679 68.9C20.5079 68.9 19.148 68.4733 18.1879 67.62C17.228 66.7667 16.748 65.6467 16.748 64.26C16.748 62.98 16.9346 60.8733 17.308 57.94C17.7346 54.9533 18.2146 51.8333 18.7479 48.58C19.3346 45.3267 19.788 42.5 20.108 40.1C20.8013 35.6733 21.548 31.3533 22.348 27.14C23.148 22.9267 23.948 18.8733 24.748 14.98L25.548 11.14C20.588 11.7267 16.988 12.6867 14.7479 14.02C12.5613 15.3533 11.468 17.1667 11.468 19.46C11.468 21.3267 11.9213 22.9533 12.8279 24.34C13.0946 24.7133 13.228 25.1933 13.228 25.78C13.228 26.8467 12.6413 27.8333 11.468 28.74C10.3479 29.5933 9.14795 30.02 7.86795 30.02C6.96128 30.02 6.21462 29.7533 5.62795 29.22C4.56128 28.3133 3.68128 27.0333 2.98795 25.38C2.29462 23.6733 1.94795 21.7533 1.94795 19.62C1.94795 15.0867 3.52128 11.46 6.66795 8.74C9.81462 5.96666 14.5613 3.94 20.908 2.66C27.308 1.38 35.548 0.739995 45.628 0.739995C56.0813 0.739995 66.3213 1.54 76.348 3.14C78.0013 3.40666 79.1746 3.96666 79.868 4.81999C80.6146 5.62 80.9879 6.55333 80.9879 7.62C80.9879 9.22 80.5879 10.4467 79.788 11.3C78.988 12.1 77.788 12.5 76.188 12.5C75.6013 12.5 75.148 12.4733 74.828 12.42L66.748 11.38C66.5346 15.1133 65.9746 18.9533 65.068 22.9L60.188 45.78C59.6546 48.4467 59.388 50.74 59.388 52.66C59.388 54.9 59.8946 56.58 60.908 57.7C61.9746 58.82 63.4413 59.38 65.308 59.38C67.068 59.38 68.7746 58.7933 70.428 57.62C72.1346 56.4467 74.1346 54.5 76.428 51.78C77.068 51.0333 77.788 50.66 78.588 50.66ZM84.1561 68.9C80.8494 68.9 78.2094 67.7 76.2361 65.3C74.2627 62.9 73.2761 59.7533 73.2761 55.86C73.2761 51.5933 74.2627 47.5667 76.2361 43.78C78.2094 39.94 80.8227 36.8733 84.0761 34.58C87.3827 32.2333 90.8761 31.06 94.5561 31.06C95.7294 31.06 96.5027 31.3 96.8761 31.78C97.3027 32.2067 97.6494 33.0067 97.9161 34.18C99.0361 33.9667 100.209 33.86 101.436 33.86C104.049 33.86 105.356 34.7933 105.356 36.66C105.356 37.78 104.956 40.4467 104.156 44.66C102.929 50.7933 102.316 55.06 102.316 57.46C102.316 58.26 102.503 58.9 102.876 59.38C103.303 59.86 103.836 60.1 104.476 60.1C105.489 60.1 106.716 59.46 108.156 58.18C109.596 56.8467 111.543 54.7133 113.996 51.78C114.636 51.0333 115.356 50.66 116.156 50.66C116.849 50.66 117.383 50.98 117.756 51.62C118.183 52.26 118.396 53.14 118.396 54.26C118.396 56.3933 117.889 58.0467 116.876 59.22C114.689 61.94 112.369 64.2333 109.916 66.1C107.463 67.9667 105.089 68.9 102.796 68.9C101.036 68.9 99.4094 68.3133 97.9161 67.14C96.4761 65.9133 95.3827 64.26 94.6361 62.18C91.8627 66.66 88.3694 68.9 84.1561 68.9ZM87.0361 60.82C88.2094 60.82 89.3294 60.1267 90.3961 58.74C91.4627 57.3533 92.2361 55.5133 92.7161 53.22L95.6761 38.5C93.4361 38.5533 91.3561 39.4067 89.4361 41.06C87.5694 42.66 86.0761 44.7933 84.9561 47.46C83.8361 50.1267 83.2761 52.9533 83.2761 55.94C83.2761 57.5933 83.5961 58.82 84.2361 59.62C84.9294 60.42 85.8627 60.82 87.0361 60.82ZM174.854 50.66C175.548 50.66 176.081 50.98 176.454 51.62C176.881 52.26 177.094 53.14 177.094 54.26C177.094 56.4467 176.588 58.1267 175.574 59.3C173.121 62.18 170.721 64.5 168.374 66.26C166.081 68.02 163.548 68.9 160.774 68.9C157.948 68.9 155.921 67.8333 154.694 65.7C153.468 63.5667 152.854 60.4733 152.854 56.42C152.854 52.9 153.281 48.5 154.134 43.22H153.974C152.641 45.5133 151.388 48.1 150.214 50.98C149.041 53.86 147.734 57.2733 146.294 61.22L144.934 64.82C144.348 66.42 143.654 67.5133 142.854 68.1C142.054 68.6333 141.094 68.9 139.974 68.9C138.801 68.9 137.948 68.58 137.414 67.94C136.881 67.3 136.401 66.2867 135.974 64.9C135.494 63.3 135.094 61.1133 134.774 58.34C134.454 55.5133 134.294 52.66 134.294 49.78C134.294 48.02 134.374 46.34 134.534 44.74H134.374C133.041 49.9133 131.734 54.18 130.454 57.54C129.174 60.8467 127.441 63.5667 125.254 65.7C123.068 67.78 120.294 68.82 116.934 68.82C114.108 68.82 111.921 67.8333 110.374 65.86C108.881 63.8867 108.134 61.4067 108.134 58.42C108.134 55.7533 108.748 53.54 109.974 51.78C111.201 49.9667 112.934 49.06 115.174 49.06C117.308 49.06 118.374 49.78 118.374 51.22C118.374 51.4867 118.348 51.7 118.294 51.86C117.868 54.42 117.654 56.2333 117.654 57.3C117.654 59.1133 118.054 60.02 118.854 60.02C119.601 60.02 120.348 59.4867 121.094 58.42C121.841 57.3 122.881 54.9 124.214 51.22C126.028 46.26 127.734 41.1933 129.334 36.02C129.868 34.3667 130.641 33.1667 131.654 32.42C132.721 31.62 134.134 31.22 135.894 31.22C137.388 31.22 138.614 31.5133 139.574 32.1C140.588 32.6867 141.094 33.6467 141.094 34.98C141.094 42.7133 141.281 48.6067 141.654 52.66H141.814C142.721 49.62 144.134 46.1267 146.054 42.18C147.974 38.2333 149.494 35.6467 150.614 34.42C151.628 33.3533 152.641 32.5533 153.654 32.02C154.721 31.4333 155.894 31.14 157.174 31.14C159.094 31.14 160.401 31.5667 161.094 32.42C161.788 33.22 162.134 34.74 162.134 36.98C162.134 38.2067 162.108 39.4333 162.054 40.66C162.001 41.8333 161.948 42.9267 161.894 43.94C161.681 47.8867 161.574 50.82 161.574 52.74C161.574 55.78 161.788 57.8333 162.214 58.9C162.641 59.9667 163.441 60.5 164.614 60.5C166.748 60.5 169.441 57.7 172.694 52.1C173.281 51.14 174.001 50.66 174.854 50.66ZM218.324 50.66C219.018 50.66 219.551 50.98 219.924 51.62C220.351 52.26 220.564 53.14 220.564 54.26C220.564 56.3933 220.058 58.0467 219.044 59.22C216.271 62.4733 213.604 64.9 211.044 66.5C208.484 68.1 205.951 68.9 203.444 68.9C201.258 68.9 199.578 68.1267 198.404 66.58C197.231 65.0333 196.644 62.82 196.644 59.94C196.644 58.3933 196.804 56.7133 197.124 54.9H196.964C192.004 64.2333 185.684 68.9 178.004 68.9C174.698 68.9 172.004 67.94 169.924 66.02C167.898 64.1 166.884 61.5667 166.884 58.42C166.884 55.6467 167.498 53.46 168.724 51.86C170.004 50.26 171.738 49.46 173.924 49.46C175.844 49.46 176.804 50.2333 176.804 51.78C176.804 51.9933 176.751 52.3667 176.644 52.9C176.538 53.7533 176.484 54.3933 176.484 54.82C176.484 56.5267 176.858 57.94 177.604 59.06C178.351 60.18 179.364 60.74 180.644 60.74C182.298 60.74 183.978 60.2333 185.684 59.22C187.391 58.1533 189.071 56.66 190.724 54.74H189.684C186.484 54.74 183.924 53.7267 182.004 51.7C180.138 49.6733 179.204 46.9533 179.204 43.54C179.204 39.5933 180.351 36.5533 182.644 34.42C184.938 32.2333 188.138 31.14 192.244 31.14C195.124 31.14 198.084 31.5933 201.124 32.5C201.711 31.7 202.938 31.3 204.804 31.3C205.871 31.3 206.698 31.5667 207.284 32.1C207.924 32.58 208.191 33.2467 208.084 34.1C207.978 35.4333 207.498 37.8067 206.644 41.22C205.844 44.6333 205.231 47.5667 204.804 50.02C204.378 52.4733 204.164 54.7667 204.164 56.9C204.164 57.9133 204.351 58.7133 204.724 59.3C205.151 59.8333 205.738 60.1 206.484 60.1C207.498 60.1 208.724 59.4867 210.164 58.26C211.604 57.0333 213.604 54.8733 216.164 51.78C216.751 51.0333 217.471 50.66 218.324 50.66ZM194.964 48.58C196.778 45.4333 198.218 42.0733 199.284 38.5C197.364 37.9133 195.658 37.62 194.164 37.62C192.031 37.62 190.378 38.1267 189.204 39.14C188.031 40.1533 187.444 41.5933 187.444 43.46C187.444 44.9533 187.924 46.2067 188.884 47.22C189.898 48.2333 191.151 48.74 192.644 48.74C193.338 48.74 194.111 48.6867 194.964 48.58ZM219.762 68.9C217.735 68.9 216.295 67.8333 215.442 65.7C214.642 63.5667 214.242 60.1533 214.242 55.46C214.242 48.5267 215.228 41.94 217.202 35.7C217.682 34.1533 218.455 33.0333 219.522 32.34C220.642 31.5933 222.188 31.22 224.162 31.22C225.228 31.22 225.975 31.3533 226.402 31.62C226.828 31.8867 227.042 32.3933 227.042 33.14C227.042 33.9933 226.642 35.9133 225.842 38.9C225.308 41.0333 224.882 42.9 224.562 44.5C224.242 46.0467 223.975 47.9933 223.762 50.34C225.202 46.18 226.908 42.66 228.882 39.78C230.908 36.9 232.962 34.7667 235.042 33.38C237.175 31.94 239.175 31.22 241.042 31.22C242.908 31.22 244.215 31.6467 244.962 32.5C245.762 33.3533 246.162 34.66 246.162 36.42C246.162 38.1267 245.655 41.22 244.642 45.7C244.215 47.62 243.922 49.06 243.762 50.02C246.428 43.46 249.388 38.6867 252.642 35.7C255.895 32.7133 258.935 31.22 261.762 31.22C265.228 31.22 266.962 32.9533 266.962 36.42C266.962 38.5 266.375 42.26 265.202 47.7C264.188 52.34 263.682 55.4067 263.682 56.9C263.682 59.0333 264.455 60.1 266.002 60.1C267.068 60.1 268.322 59.46 269.762 58.18C271.255 56.8467 273.228 54.7133 275.682 51.78C276.322 51.0333 277.042 50.66 277.842 50.66C278.535 50.66 279.068 50.98 279.442 51.62C279.868 52.26 280.082 53.14 280.082 54.26C280.082 56.3933 279.575 58.0467 278.562 59.22C276.268 62.0467 273.788 64.3667 271.122 66.18C268.508 67.9933 265.522 68.9 262.162 68.9C259.442 68.9 257.388 68.1267 256.002 66.58C254.615 64.98 253.922 62.6867 253.922 59.7C253.922 58.2067 254.295 55.54 255.042 51.7C255.735 48.34 256.082 46.02 256.082 44.74C256.082 43.8867 255.788 43.46 255.202 43.46C254.508 43.46 253.522 44.3667 252.242 46.18C250.962 47.94 249.682 50.2867 248.402 53.22C247.122 56.1533 246.082 59.2467 245.282 62.5C244.695 65.06 244.002 66.7667 243.202 67.62C242.455 68.4733 241.228 68.9 239.522 68.9C237.762 68.9 236.428 68.0733 235.522 66.42C234.668 64.7133 234.242 62.66 234.242 60.26C234.242 58.2333 234.508 55.3 235.042 51.46C235.468 48.0467 235.682 45.8067 235.682 44.74C235.682 43.8867 235.388 43.46 234.802 43.46C234.002 43.46 232.988 44.42 231.762 46.34C230.535 48.26 229.335 50.7133 228.162 53.7C227.042 56.6867 226.135 59.62 225.442 62.5C224.855 65.0067 224.162 66.7133 223.362 67.62C222.615 68.4733 221.415 68.9 219.762 68.9ZM319.213 50.66C319.906 50.66 320.44 50.98 320.813 51.62C321.24 52.26 321.453 53.14 321.453 54.26C321.453 56.3933 320.946 58.0467 319.933 59.22C317.48 62.0467 314.946 64.3667 312.333 66.18C309.773 67.9933 306.84 68.9 303.533 68.9C301.346 68.9 299.426 68.26 297.773 66.98C295.32 68.26 292.546 68.9 289.453 68.9C284.6 68.9 280.786 67.54 278.013 64.82C275.293 62.0467 273.933 58.4467 273.933 54.02C273.933 50.82 274.173 47.78 274.653 44.9C275.133 42.02 275.88 38.9533 276.893 35.7C277.373 34.1533 278.146 33.0333 279.213 32.34C280.333 31.5933 281.933 31.22 284.013 31.22C286.413 31.22 287.613 31.86 287.613 33.14C287.613 33.6733 287.213 35.5933 286.413 38.9L285.853 41.3L284.733 46.1C286.173 44.66 287.88 43.4867 289.853 42.58C291.88 41.62 293.933 41.14 296.013 41.14C299.266 41.14 301.826 42.2067 303.693 44.34C305.613 46.4733 306.573 49.1933 306.573 52.5C306.573 55.06 305.96 57.5667 304.733 60.02C305 60.0733 305.373 60.1 305.853 60.1C307.613 60.1 309.293 59.46 310.893 58.18C312.493 56.9 314.546 54.7667 317.053 51.78C317.693 51.0333 318.413 50.66 319.213 50.66ZM289.853 60.42C291.986 60.42 293.64 59.8333 294.813 58.66C295.986 57.4867 296.573 55.86 296.573 53.78C296.573 50.9533 295.053 49.54 292.013 49.54C290.253 49.54 288.68 50.0467 287.293 51.06C285.96 52.0733 284.866 53.22 284.013 54.5C284.226 56.42 284.786 57.8867 285.693 58.9C286.6 59.9133 287.986 60.42 289.853 60.42Z" fill="#F3692E"/>
<path d="M344.273 68.9C341.873 68.9 339.9 67.8067 338.353 65.62C336.86 63.38 336.113 60.6067 336.113 57.3C336.113 53.3 336.38 49.6467 336.913 46.34C337.446 42.98 338.326 39.4333 339.553 35.7C340.086 34.1 340.833 32.9533 341.793 32.26C342.753 31.5667 344.273 31.22 346.353 31.22C347.526 31.22 348.326 31.4067 348.753 31.78C349.233 32.1533 349.473 32.7133 349.473 33.46C349.473 33.8867 349.18 35.3267 348.593 37.78C348.06 39.7533 347.633 41.54 347.313 43.14C346.246 48.74 345.713 52.4733 345.713 54.34C345.713 55.46 345.846 56.26 346.113 56.74C346.38 57.1667 346.806 57.38 347.393 57.38C348.193 57.38 349.18 56.58 350.353 54.98C351.58 53.38 352.86 50.9533 354.193 47.7C355.58 44.4467 356.913 40.4467 358.193 35.7C358.62 34.1 359.26 32.9533 360.113 32.26C361.02 31.5667 362.353 31.22 364.113 31.22C365.34 31.22 366.193 31.38 366.673 31.7C367.153 31.9667 367.393 32.5 367.393 33.3C367.393 34.6333 366.726 38.2867 365.393 44.26C363.9 51.0867 363.153 55.3 363.153 56.9C363.153 57.9133 363.366 58.7133 363.793 59.3C364.22 59.8333 364.78 60.1 365.473 60.1C366.54 60.1 367.793 59.46 369.233 58.18C370.726 56.8467 372.7 54.7133 375.153 51.78C375.793 51.0333 376.513 50.66 377.313 50.66C378.006 50.66 378.54 50.98 378.913 51.62C379.34 52.26 379.553 53.14 379.553 54.26C379.553 56.3933 379.046 58.0467 378.033 59.22C375.74 62.0467 373.26 64.3667 370.593 66.18C367.98 67.9933 364.993 68.9 361.633 68.9C359.073 68.9 357.18 67.9133 355.953 65.94C354.78 63.9667 354.193 61.1933 354.193 57.62C353.286 61.2467 351.926 64.0467 350.113 66.02C348.3 67.94 346.353 68.9 344.273 68.9ZM68.588 132.3C68.588 136.833 66.988 140.753 63.788 144.06C60.588 147.313 55.9213 149.66 49.788 151.1C53.0946 152.007 55.6013 153.5 57.308 155.58C59.0146 157.607 59.868 159.953 59.868 162.62C59.868 166.833 58.5346 170.487 55.868 173.58C53.2546 176.673 49.4146 179.073 44.3479 180.78C39.2813 182.433 33.1746 183.26 26.028 183.26C23.3613 183.26 21.228 183.18 19.628 183.02C19.5746 184.513 18.9346 185.633 17.7079 186.38C16.4813 187.127 14.9079 187.5 12.9879 187.5C11.0679 187.5 9.73462 187.073 8.98795 186.22C8.29462 185.367 8.00128 184.113 8.10795 182.46C8.58795 174.993 9.52128 167.18 10.9079 159.02C12.2946 150.807 14.0546 142.887 16.188 135.26C16.5613 133.927 17.308 132.993 18.428 132.46C19.548 131.927 21.0146 131.66 22.8279 131.66C26.0813 131.66 27.708 132.567 27.708 134.38C27.708 135.127 27.548 135.98 27.228 136.94C25.8413 141.1 24.4546 146.753 23.068 153.9C21.6813 160.993 20.6946 167.767 20.108 174.22C22.6679 174.433 24.7479 174.54 26.3479 174.54C33.8146 174.54 39.2813 173.473 42.748 171.34C46.2679 169.153 48.0279 166.38 48.0279 163.02C48.0279 160.673 47.0146 158.7 44.988 157.1C43.0146 155.5 39.6813 154.62 34.988 154.46C33.9213 154.407 33.1746 154.14 32.748 153.66C32.3213 153.18 32.108 152.407 32.108 151.34C32.108 149.793 32.428 148.54 33.068 147.58C33.708 146.62 34.8813 146.113 36.588 146.06C40.3746 145.953 43.788 145.393 46.828 144.38C49.9213 143.367 52.348 141.953 54.108 140.14C55.868 138.273 56.748 136.113 56.748 133.66C56.748 130.567 55.228 128.14 52.188 126.38C49.148 124.567 44.4813 123.66 38.188 123.66C32.4813 123.66 26.9613 124.407 21.628 125.9C16.2946 127.34 11.7613 129.18 8.02795 131.42C6.32128 132.433 4.88128 132.94 3.70795 132.94C2.74795 132.94 2.00128 132.62 1.46795 131.98C0.987949 131.287 0.747949 130.433 0.747949 129.42C0.747949 128.087 1.01462 126.94 1.54795 125.98C2.13462 125.02 3.49462 123.927 5.62795 122.7C10.1079 120.14 15.3613 118.14 21.388 116.7C27.4146 115.26 33.5746 114.54 39.8679 114.54C49.5213 114.54 56.7213 116.167 61.468 119.42C66.2146 122.673 68.588 126.967 68.588 132.3ZM113.837 165.66C114.531 165.66 115.064 165.98 115.437 166.62C115.864 167.26 116.077 168.14 116.077 169.26C116.077 171.393 115.571 173.047 114.557 174.22C112.104 177.047 109.571 179.367 106.957 181.18C104.397 182.993 101.464 183.9 98.1573 183.9C95.384 183.9 93.4373 183.047 92.3173 181.34C91.1973 179.633 90.6373 177.073 90.6373 173.66C90.6373 172.22 90.7707 170.487 91.0373 168.46C86.344 168.46 83.0907 168.407 81.2773 168.3C81.1707 169.793 81.1173 170.833 81.1173 171.42V173.1C81.064 176.407 80.984 178.727 80.8773 180.06C80.7707 181.393 80.4507 182.38 79.9173 183.02C79.384 183.607 78.504 183.9 77.2773 183.9C75.2507 183.9 73.8107 182.833 72.9573 180.7C72.1573 178.567 71.7573 175.153 71.7573 170.46C71.7573 163.527 72.744 156.94 74.7173 150.7C75.1973 149.153 75.9707 148.033 77.0373 147.34C78.104 146.593 79.6507 146.22 81.6773 146.22C82.744 146.22 83.4907 146.353 83.9173 146.62C84.344 146.887 84.5573 147.393 84.5573 148.14C84.5573 148.993 84.1573 150.913 83.3573 153.9C82.9307 155.66 82.5307 157.793 82.1573 160.3H92.3973C92.9307 157.793 93.704 154.593 94.7173 150.7C95.144 149.1 95.784 147.953 96.6373 147.26C97.544 146.567 98.8773 146.22 100.637 146.22C101.864 146.22 102.717 146.38 103.197 146.7C103.677 146.967 103.917 147.5 103.917 148.3C103.917 149.633 103.251 153.287 101.917 159.26C100.424 166.087 99.6773 170.3 99.6773 171.9C99.6773 172.913 99.8907 173.713 100.317 174.3C100.744 174.833 101.304 175.1 101.997 175.1C103.064 175.1 104.317 174.46 105.757 173.18C107.251 171.847 109.224 169.713 111.677 166.78C112.317 166.033 113.037 165.66 113.837 165.66ZM121.726 183.9C119.326 183.9 117.353 182.807 115.806 180.62C114.313 178.38 113.566 175.607 113.566 172.3C113.566 168.3 113.833 164.647 114.366 161.34C114.899 157.98 115.779 154.433 117.006 150.7C117.539 149.1 118.286 147.953 119.246 147.26C120.206 146.567 121.726 146.22 123.806 146.22C124.979 146.22 125.779 146.407 126.206 146.78C126.686 147.153 126.926 147.713 126.926 148.46C126.926 148.887 126.633 150.327 126.046 152.78C125.513 154.753 125.086 156.54 124.766 158.14C123.699 163.74 123.166 167.473 123.166 169.34C123.166 170.46 123.299 171.26 123.566 171.74C123.833 172.167 124.259 172.38 124.846 172.38C125.646 172.38 126.633 171.58 127.806 169.98C129.033 168.38 130.313 165.953 131.646 162.7C133.033 159.447 134.366 155.447 135.646 150.7C136.073 149.1 136.713 147.953 137.566 147.26C138.473 146.567 139.806 146.22 141.566 146.22C142.793 146.22 143.646 146.38 144.126 146.7C144.606 146.967 144.846 147.5 144.846 148.3C144.846 149.633 144.179 153.287 142.846 159.26C141.353 166.087 140.606 170.3 140.606 171.9C140.606 172.913 140.819 173.713 141.246 174.3C141.673 174.833 142.233 175.1 142.926 175.1C143.993 175.1 145.246 174.46 146.686 173.18C148.179 171.847 150.153 169.713 152.606 166.78C153.246 166.033 153.966 165.66 154.766 165.66C155.459 165.66 155.993 165.98 156.366 166.62C156.793 167.26 157.006 168.14 157.006 169.26C157.006 171.393 156.499 173.047 155.486 174.22C153.193 177.047 150.713 179.367 148.046 181.18C145.433 182.993 142.446 183.9 139.086 183.9C136.526 183.9 134.633 182.913 133.406 180.94C132.233 178.967 131.646 176.193 131.646 172.62C130.739 176.247 129.379 179.047 127.566 181.02C125.753 182.94 123.806 183.9 121.726 183.9ZM217.479 165.66C218.173 165.66 218.706 165.98 219.079 166.62C219.506 167.26 219.719 168.14 219.719 169.26C219.719 171.447 219.213 173.127 218.199 174.3C215.746 177.18 213.346 179.5 210.999 181.26C208.706 183.02 206.173 183.9 203.399 183.9C200.573 183.9 198.546 182.833 197.319 180.7C196.093 178.567 195.479 175.473 195.479 171.42C195.479 167.9 195.906 163.5 196.759 158.22H196.599C195.266 160.513 194.013 163.1 192.839 165.98C191.666 168.86 190.359 172.273 188.919 176.22L187.559 179.82C186.973 181.42 186.279 182.513 185.479 183.1C184.679 183.633 183.719 183.9 182.599 183.9C181.426 183.9 180.573 183.58 180.039 182.94C179.506 182.3 179.026 181.287 178.599 179.9C178.119 178.3 177.719 176.113 177.399 173.34C177.079 170.513 176.919 167.66 176.919 164.78C176.919 163.02 176.999 161.34 177.159 159.74H176.999C175.666 164.913 174.359 169.18 173.079 172.54C171.799 175.847 170.066 178.567 167.879 180.7C165.693 182.78 162.919 183.82 159.559 183.82C156.733 183.82 154.546 182.833 152.999 180.86C151.506 178.887 150.759 176.407 150.759 173.42C150.759 170.753 151.373 168.54 152.599 166.78C153.826 164.967 155.559 164.06 157.799 164.06C159.933 164.06 160.999 164.78 160.999 166.22C160.999 166.487 160.973 166.7 160.919 166.86C160.493 169.42 160.279 171.233 160.279 172.3C160.279 174.113 160.679 175.02 161.479 175.02C162.226 175.02 162.973 174.487 163.719 173.42C164.466 172.3 165.506 169.9 166.839 166.22C168.653 161.26 170.359 156.193 171.959 151.02C172.493 149.367 173.266 148.167 174.279 147.42C175.346 146.62 176.759 146.22 178.519 146.22C180.013 146.22 181.239 146.513 182.199 147.1C183.213 147.687 183.719 148.647 183.719 149.98C183.719 157.713 183.906 163.607 184.279 167.66H184.439C185.346 164.62 186.759 161.127 188.679 157.18C190.599 153.233 192.119 150.647 193.239 149.42C194.253 148.353 195.266 147.553 196.279 147.02C197.346 146.433 198.519 146.14 199.799 146.14C201.719 146.14 203.026 146.567 203.719 147.42C204.413 148.22 204.759 149.74 204.759 151.98C204.759 153.207 204.733 154.433 204.679 155.66C204.626 156.833 204.573 157.927 204.519 158.94C204.306 162.887 204.199 165.82 204.199 167.74C204.199 170.78 204.413 172.833 204.839 173.9C205.266 174.967 206.066 175.5 207.239 175.5C209.373 175.5 212.066 172.7 215.319 167.1C215.906 166.14 216.626 165.66 217.479 165.66ZM226.328 183.9C223.021 183.9 220.381 182.7 218.408 180.3C216.435 177.9 215.448 174.753 215.448 170.86C215.448 166.593 216.435 162.567 218.408 158.78C220.381 154.94 222.995 151.873 226.248 149.58C229.555 147.233 233.048 146.06 236.728 146.06C237.901 146.06 238.675 146.3 239.048 146.78C239.475 147.207 239.821 148.007 240.088 149.18C241.208 148.967 242.381 148.86 243.608 148.86C246.221 148.86 247.528 149.793 247.528 151.66C247.528 152.78 247.128 155.447 246.328 159.66C245.101 165.793 244.488 170.06 244.488 172.46C244.488 173.26 244.675 173.9 245.048 174.38C245.475 174.86 246.008 175.1 246.648 175.1C247.661 175.1 248.888 174.46 250.328 173.18C251.768 171.847 253.715 169.713 256.168 166.78C256.808 166.033 257.528 165.66 258.328 165.66C259.021 165.66 259.555 165.98 259.928 166.62C260.355 167.26 260.568 168.14 260.568 169.26C260.568 171.393 260.061 173.047 259.048 174.22C256.861 176.94 254.541 179.233 252.088 181.1C249.635 182.967 247.261 183.9 244.968 183.9C243.208 183.9 241.581 183.313 240.088 182.14C238.648 180.913 237.555 179.26 236.808 177.18C234.035 181.66 230.541 183.9 226.328 183.9ZM229.208 175.82C230.381 175.82 231.501 175.127 232.568 173.74C233.635 172.353 234.408 170.513 234.888 168.22L237.848 153.5C235.608 153.553 233.528 154.407 231.608 156.06C229.741 157.66 228.248 159.793 227.128 162.46C226.008 165.127 225.448 167.953 225.448 170.94C225.448 172.593 225.768 173.82 226.408 174.62C227.101 175.42 228.035 175.82 229.208 175.82ZM300.306 165.66C300.999 165.66 301.533 165.98 301.906 166.62C302.333 167.26 302.546 168.14 302.546 169.26C302.546 171.393 302.039 173.047 301.026 174.22C298.573 177.047 296.039 179.367 293.426 181.18C290.866 182.993 287.933 183.9 284.626 183.9C281.853 183.9 279.906 183.047 278.786 181.34C277.666 179.633 277.106 177.073 277.106 173.66C277.106 172.22 277.239 170.487 277.506 168.46C272.813 168.46 269.559 168.407 267.746 168.3C267.639 169.793 267.586 170.833 267.586 171.42V173.1C267.533 176.407 267.453 178.727 267.346 180.06C267.239 181.393 266.919 182.38 266.386 183.02C265.853 183.607 264.973 183.9 263.746 183.9C261.719 183.9 260.279 182.833 259.426 180.7C258.626 178.567 258.226 175.153 258.226 170.46C258.226 163.527 259.213 156.94 261.186 150.7C261.666 149.153 262.439 148.033 263.506 147.34C264.573 146.593 266.119 146.22 268.146 146.22C269.213 146.22 269.959 146.353 270.386 146.62C270.813 146.887 271.026 147.393 271.026 148.14C271.026 148.993 270.626 150.913 269.826 153.9C269.399 155.66 268.999 157.793 268.626 160.3H278.866C279.399 157.793 280.173 154.593 281.186 150.7C281.613 149.1 282.253 147.953 283.106 147.26C284.013 146.567 285.346 146.22 287.106 146.22C288.333 146.22 289.186 146.38 289.666 146.7C290.146 146.967 290.386 147.5 290.386 148.3C290.386 149.633 289.719 153.287 288.386 159.26C286.893 166.087 286.146 170.3 286.146 171.9C286.146 172.913 286.359 173.713 286.786 174.3C287.213 174.833 287.773 175.1 288.466 175.1C289.533 175.1 290.786 174.46 292.226 173.18C293.719 171.847 295.693 169.713 298.146 166.78C298.786 166.033 299.506 165.66 300.306 165.66ZM308.195 183.9C305.795 183.9 303.821 182.807 302.275 180.62C300.781 178.38 300.035 175.607 300.035 172.3C300.035 168.3 300.301 164.647 300.835 161.34C301.368 157.98 302.248 154.433 303.475 150.7C304.008 149.1 304.755 147.953 305.715 147.26C306.675 146.567 308.195 146.22 310.275 146.22C311.448 146.22 312.248 146.407 312.675 146.78C313.155 147.153 313.395 147.713 313.395 148.46C313.395 148.887 313.101 150.327 312.515 152.78C311.981 154.753 311.555 156.54 311.235 158.14C310.168 163.74 309.635 167.473 309.635 169.34C309.635 170.46 309.768 171.26 310.035 171.74C310.301 172.167 310.728 172.38 311.315 172.38C312.115 172.38 313.101 171.58 314.275 169.98C315.501 168.38 316.781 165.953 318.115 162.7C319.501 159.447 320.835 155.447 322.115 150.7C322.541 149.1 323.181 147.953 324.035 147.26C324.941 146.567 326.275 146.22 328.035 146.22C329.261 146.22 330.115 146.38 330.595 146.7C331.075 146.967 331.315 147.5 331.315 148.3C331.315 149.633 330.648 153.287 329.315 159.26C327.821 166.087 327.075 170.3 327.075 171.9C327.075 172.913 327.288 173.713 327.715 174.3C328.141 174.833 328.701 175.1 329.395 175.1C330.461 175.1 331.715 174.46 333.155 173.18C334.648 171.847 336.621 169.713 339.075 166.78C339.715 166.033 340.435 165.66 341.235 165.66C341.928 165.66 342.461 165.98 342.835 166.62C343.261 167.26 343.475 168.14 343.475 169.26C343.475 171.393 342.968 173.047 341.955 174.22C339.661 177.047 337.181 179.367 334.515 181.18C331.901 182.993 328.915 183.9 325.555 183.9C322.995 183.9 321.101 182.913 319.875 180.94C318.701 178.967 318.115 176.193 318.115 172.62C317.208 176.247 315.848 179.047 314.035 181.02C312.221 182.94 310.275 183.9 308.195 183.9ZM376.668 165.66C377.361 165.66 377.895 165.98 378.268 166.62C378.695 167.26 378.908 168.14 378.908 169.26C378.908 171.393 378.401 173.047 377.388 174.22C375.415 176.62 372.615 178.833 368.988 180.86C365.415 182.887 361.575 183.9 357.468 183.9C351.868 183.9 347.521 182.38 344.428 179.34C341.335 176.3 339.788 172.14 339.788 166.86C339.788 163.18 340.561 159.767 342.108 156.62C343.655 153.42 345.788 150.887 348.508 149.02C351.281 147.153 354.401 146.22 357.868 146.22C360.961 146.22 363.441 147.153 365.308 149.02C367.175 150.833 368.108 153.313 368.108 156.46C368.108 160.14 366.775 163.313 364.108 165.98C361.495 168.593 357.041 170.673 350.748 172.22C352.081 174.673 354.615 175.9 358.348 175.9C360.748 175.9 363.468 175.073 366.508 173.42C369.601 171.713 372.268 169.5 374.508 166.78C375.148 166.033 375.868 165.66 376.668 165.66ZM356.508 154.06C354.535 154.06 352.855 155.207 351.468 157.5C350.135 159.793 349.468 162.567 349.468 165.82V165.98C352.615 165.233 355.095 164.113 356.908 162.62C358.721 161.127 359.628 159.393 359.628 157.42C359.628 156.407 359.335 155.607 358.748 155.02C358.215 154.38 357.468 154.06 356.508 154.06Z" fill="#091522"/>
</svg>
