<svg width="236" height="39" viewBox="0 0 236 39" fill="none" xmlns="http://www.w3.org/2000/svg">
<path d="M7.592 2.24C8.2 2.24 9.384 2.896 11.144 4.208C12.936 5.488 13.832 6.448 13.832 7.088C13.832 8.208 14.2 10.048 14.936 12.608C15.672 15.168 16.52 17.488 17.48 19.568C18.44 18.448 20.056 16.384 22.328 13.376C24.632 10.336 26.568 7.936 28.136 6.176C29.704 4.416 30.872 3.536 31.64 3.536C32.408 3.536 33.208 3.968 34.04 4.832C34.872 5.696 35.288 6.56 35.288 7.424C35.288 8.288 35.16 9.408 34.904 10.784C34.648 12.128 34.36 13.392 34.04 14.576C33.752 15.728 33.32 17.312 32.744 19.328C32.2 21.344 31.768 22.944 31.448 24.128C31.16 25.28 30.856 26.528 30.536 27.872C30.216 29.184 29.96 30.224 29.768 30.992C29.608 31.728 29.416 32.512 29.192 33.344C29 34.144 28.824 34.768 28.664 35.216C28.504 35.632 28.328 36.016 28.136 36.368C27.784 37.04 27.288 37.376 26.648 37.376C26.008 37.376 25.368 36.752 24.728 35.504C24.12 34.224 23.816 32.896 23.816 31.52C23.816 28.128 24.792 23.632 26.744 18.032C26.2 18.736 25.416 19.776 24.392 21.152C23.368 22.496 22.6 23.488 22.088 24.128C21.608 24.736 21 25.456 20.264 26.288C18.952 27.728 17.672 28.448 16.424 28.448C14.76 28.448 13.576 27.792 12.872 26.48C12.52 25.808 12.04 24.304 11.432 21.968C10.856 19.6 10.44 17.968 10.184 17.072C9.768 20.368 9.208 23.36 8.504 26.048C7.8 28.736 7.336 30.496 7.112 31.328C6.888 32.16 6.584 33.168 6.2 34.352C5.56 36.368 4.984 37.376 4.472 37.376C3.896 37.376 3.096 36.624 2.072 35.12C1.08 33.584 0.584 32.384 0.584 31.52C0.584 30.656 1.512 26.336 3.368 18.56C5.256 10.784 6.2 5.872 6.2 3.824C6.2 2.768 6.664 2.24 7.592 2.24ZM54.1453 12.656C55.8093 12.656 57.2653 13.408 58.5133 14.912C59.7933 16.384 60.4333 17.968 60.4333 19.664C60.4333 22.384 59.9853 25.232 59.0893 28.208C58.2253 31.152 57.2653 33.424 56.2093 35.024C55.1853 36.624 54.1293 37.424 53.0413 37.424C51.9853 37.424 51.4573 36.672 51.4573 35.168C51.4573 34.016 51.9853 31.696 53.0413 28.208C53.8413 25.328 54.2413 23.264 54.2413 22.016C54.2413 20.768 54.0813 20.144 53.7613 20.144C53.3453 20.144 52.9293 20.352 52.5133 20.768C52.1293 21.184 51.8093 21.552 51.5533 21.872C51.2973 22.192 50.9933 22.608 50.6413 23.12C50.3213 23.6 50.0333 24.048 49.7773 24.464C49.5533 24.848 49.2493 25.36 48.8653 26C48.5133 26.608 48.2253 27.12 48.0013 27.536C47.7773 27.92 47.4893 28.432 47.1373 29.072C44.1613 34.64 41.8253 37.424 40.1293 37.424C39.4573 37.424 38.6093 36.848 37.5853 35.696C36.5613 34.512 36.0493 33.648 36.0493 33.104C36.0493 32.752 36.2733 32 36.7213 30.848C37.2013 29.664 37.5373 28.768 37.7293 28.16C37.9533 27.52 38.1293 26.848 38.2573 26.144C38.4173 25.44 38.5453 24.688 38.6413 23.888C38.7373 23.056 38.8013 22.416 38.8333 21.968C38.8973 21.52 38.9613 20.816 39.0253 19.856C39.3133 15.696 39.5533 13.392 39.7453 12.944C39.9693 12.496 40.2093 12.272 40.4653 12.272C41.6813 12.272 42.8493 12.784 43.9693 13.808C45.0893 14.8 45.6493 15.712 45.6493 16.544C45.6493 18.528 45.1373 21.376 44.1133 25.088C46.1933 21.44 48.0813 18.464 49.7773 16.16C51.5053 13.824 52.9613 12.656 54.1453 12.656ZM84.5634 21.632C84.5634 23.2 83.4914 24.608 81.3474 25.856C79.2354 27.104 77.0594 27.728 74.8194 27.728C72.5794 27.728 70.7394 27.568 69.2994 27.248C69.0114 28.112 68.8674 28.976 68.8674 29.84C68.8674 30.704 69.0114 31.328 69.2994 31.712C69.5874 32.064 70.3074 32.24 71.4594 32.24C73.8594 32.24 75.9074 32.016 77.6034 31.568C79.3314 31.12 80.2274 30.896 80.2914 30.896C81.6034 30.896 82.2594 31.328 82.2594 32.192C82.2594 33.44 81.2194 34.624 79.1394 35.744C77.0914 36.864 74.7074 37.424 71.9874 37.424C69.2994 37.424 67.1394 36.576 65.5074 34.88C63.8754 33.184 63.0594 31.184 63.0594 28.88C63.0594 26.544 63.7314 24.112 65.0754 21.584C66.4514 19.056 68.1634 16.944 70.2114 15.248C72.2594 13.52 74.2914 12.656 76.3074 12.656C78.3554 12.656 80.2434 13.664 81.9714 15.68C83.6994 17.664 84.5634 19.648 84.5634 21.632ZM78.9954 20.864C78.9954 20.544 78.6594 20.08 77.9874 19.472C77.3154 18.864 76.6754 18.56 76.0674 18.56C75.4914 18.56 74.7394 18.992 73.8114 19.856C72.8834 20.688 72.0034 21.776 71.1714 23.12C71.4594 23.152 71.8754 23.168 72.4194 23.168C76.8034 23.168 78.9954 22.4 78.9954 20.864ZM118.801 12.656C120.049 12.656 121.089 13.488 121.921 15.152C122.753 16.816 123.169 18.336 123.169 19.712C123.169 21.088 122.897 23.136 122.353 25.856C121.841 28.544 121.009 31.152 119.857 33.68C118.737 36.176 117.521 37.424 116.209 37.424C115.153 37.424 114.625 36.704 114.625 35.264C114.625 33.824 115.041 31.472 115.873 28.208C116.705 24.944 117.121 22.8 117.121 21.776C117.121 20.752 116.961 20.24 116.641 20.24C115.969 20.24 115.169 20.976 114.241 22.448C113.313 23.92 112.193 25.888 110.881 28.352C109.601 30.816 108.801 32.4 108.481 33.104C108.161 33.808 107.889 34.368 107.665 34.784C107.473 35.2 107.249 35.632 106.993 36.08C105.969 37.776 104.609 37.776 102.913 36.08C102.049 35.216 101.617 34.432 101.617 33.728C101.617 33.6 101.873 32.384 102.385 30.08C102.929 27.744 103.201 25.088 103.201 22.112C103.201 20.864 103.057 20.24 102.769 20.24C102.385 20.24 101.937 20.624 101.425 21.392C100.913 22.16 100.129 23.552 99.0729 25.568C98.0169 27.584 97.1049 29.248 96.3369 30.56C93.6489 35.136 91.6009 37.424 90.1929 37.424C89.4889 37.424 88.6089 36.832 87.5529 35.648C86.5289 34.464 86.0169 33.568 86.0169 32.96C86.0169 32.32 86.3689 30.816 87.0729 28.448C87.8089 26.048 88.2729 23.504 88.4649 20.816C88.6889 18.128 88.8809 16.032 89.0409 14.528C89.2329 13.024 89.6169 12.272 90.1929 12.272C91.4089 12.272 92.5769 12.784 93.6969 13.808C94.8489 14.8 95.4249 15.712 95.4249 16.544C95.4249 18.432 94.7369 21.728 93.3609 26.432C95.6009 21.088 97.4889 17.472 99.0249 15.584C100.657 13.632 102.225 12.656 103.729 12.656C104.561 12.656 105.585 13.424 106.801 14.96C108.049 16.496 108.673 17.936 108.673 19.28C108.673 20.592 108.657 21.744 108.625 22.736C109.617 20.24 111.121 17.936 113.137 15.824C115.153 13.712 117.041 12.656 118.801 12.656ZM132.593 32.528C134.321 31.76 135.825 30.208 137.105 27.872C138.385 25.536 139.025 23.344 139.025 21.296C139.025 19.248 138.737 17.84 138.161 17.072C136.785 17.872 135.409 19.552 134.033 22.112C132.689 24.672 132.017 26.928 132.017 28.88C132.017 30.8 132.209 32.016 132.593 32.528ZM125.585 29.36C125.585 25.36 126.817 21.568 129.281 17.984C131.777 14.4 134.241 12.608 136.673 12.608C139.105 12.608 141.153 13.472 142.817 15.2C144.481 16.896 145.313 18.96 145.313 21.392C145.313 23.792 144.737 26.24 143.585 28.736C142.433 31.232 140.817 33.312 138.737 34.976C136.657 36.608 134.433 37.424 132.065 37.424C130.305 37.424 128.785 36.64 127.505 35.072C126.225 33.504 125.585 31.6 125.585 29.36ZM161.156 6.896L151.604 7.328C151.22 7.328 150.804 7.056 150.356 6.512C149.94 5.968 149.732 5.504 149.732 5.12C149.732 4.736 150.404 4.512 151.748 4.448C153.092 4.384 157.588 4.352 165.236 4.352C167.7 4.352 169.94 4.64 171.956 5.216C174.004 5.76 175.028 6.32 175.028 6.896C175.028 7.216 174.548 7.376 173.588 7.376C172.628 7.376 171.22 7.312 169.364 7.184C167.54 7.024 165.7 6.928 163.844 6.896C163.94 7.248 163.988 7.568 163.988 7.856C163.988 9.872 162.772 15.312 160.34 24.176C159.988 25.424 159.508 27.312 158.9 29.84C158.292 32.368 157.812 34.208 157.46 35.36C157.108 36.48 156.804 37.04 156.548 37.04C156.196 37.04 155.828 36.832 155.444 36.416C155.06 35.968 154.868 35.376 154.868 34.64C154.868 33.904 155.86 29.744 157.844 22.16C159.828 14.544 160.932 9.456 161.156 6.896ZM191.505 21.488C191.505 23.152 190.657 24.48 188.961 25.472C187.265 26.432 185.313 26.912 183.105 26.912C180.897 26.912 178.577 26.608 176.145 26C175.633 27.632 175.377 29.088 175.377 30.368C175.377 31.648 175.825 32.656 176.721 33.392C177.617 34.096 178.801 34.448 180.273 34.448C181.745 34.448 183.313 34.144 184.977 33.536C186.641 32.928 187.585 32.624 187.809 32.624C188.385 32.624 188.673 32.88 188.673 33.392C188.673 34.032 187.729 34.832 185.841 35.792C183.953 36.72 182.225 37.184 180.657 37.184C178.449 37.184 176.561 36.496 174.993 35.12C173.457 33.712 172.689 31.904 172.689 29.696C172.689 27.456 173.265 25.104 174.417 22.64C175.569 20.176 177.073 18.112 178.929 16.448C180.785 14.752 182.609 13.904 184.401 13.904C186.225 13.904 187.857 14.752 189.297 16.448C190.769 18.112 191.505 19.792 191.505 21.488ZM184.785 16.592C183.345 16.592 181.905 17.296 180.465 18.704C179.057 20.112 177.889 21.872 176.961 23.984C178.817 24.432 180.657 24.656 182.481 24.656C184.337 24.656 185.841 24.352 186.993 23.744C188.177 23.104 188.769 22.288 188.769 21.296C188.769 20.272 188.337 19.232 187.473 18.176C186.609 17.12 185.713 16.592 184.785 16.592ZM201.235 37.184C199.475 37.184 197.859 36.544 196.387 35.264C194.947 33.952 194.227 32.272 194.227 30.224C194.227 28.144 194.883 25.824 196.195 23.264C197.507 20.672 199.187 18.464 201.235 16.64C203.315 14.816 205.299 13.904 207.187 13.904C208.595 13.904 209.731 14.416 210.595 15.44C211.491 16.432 211.939 17.248 211.939 17.888C211.939 18.528 211.747 18.848 211.363 18.848C210.979 18.848 210.371 18.512 209.539 17.84C208.739 17.136 208.019 16.784 207.379 16.784C206.099 16.784 204.643 17.568 203.011 19.136C201.379 20.704 199.987 22.576 198.835 24.752C197.715 26.928 197.155 28.704 197.155 30.08C197.155 31.424 197.523 32.48 198.259 33.248C199.027 33.984 200.083 34.352 201.427 34.352C202.803 34.352 204.083 34.16 205.267 33.776C206.451 33.392 207.379 33.024 208.051 32.672C208.755 32.288 209.267 32.096 209.587 32.096C210.035 32.096 210.259 32.352 210.259 32.864C210.259 33.536 209.203 34.432 207.091 35.552C204.979 36.64 203.027 37.184 201.235 37.184ZM219.901 2.24C219.901 1.536 219.965 1.072 220.093 0.847998C220.221 0.591997 220.493 0.463997 220.909 0.463997C221.325 0.463997 221.757 0.815997 222.205 1.52C222.653 2.224 222.877 2.96 222.877 3.728C222.877 6.288 222.413 10.208 221.485 15.488C220.589 20.736 219.181 26.064 217.261 31.472C221.069 24.816 224.013 20.224 226.093 17.696C228.173 15.168 229.965 13.904 231.469 13.904C232.237 13.904 233.117 14.544 234.109 15.824C235.133 17.072 235.645 18.464 235.645 20C235.645 21.536 235.133 23.92 234.109 27.152C233.085 30.352 232.173 32.832 231.373 34.592C230.605 36.32 229.869 37.184 229.165 37.184C228.653 37.184 228.397 36.912 228.397 36.368C228.397 35.792 228.541 35.056 228.829 34.16C229.117 33.232 229.533 32.016 230.077 30.512C231.901 25.552 232.813 22.016 232.813 19.904C232.813 19.2 232.589 18.608 232.141 18.128C231.725 17.616 231.325 17.36 230.941 17.36C230.013 17.36 228.957 18.08 227.773 19.52C226.621 20.96 225.405 22.656 224.125 24.608C222.845 26.528 222.141 27.568 222.013 27.728C221.917 27.888 221.789 28.096 221.629 28.352C221.469 28.608 221.181 29.056 220.765 29.696C220.349 30.304 219.677 31.36 218.749 32.864C216.957 35.744 215.965 37.184 215.773 37.184C215.453 37.184 215.085 36.96 214.669 36.512C214.253 36.032 214.045 35.6 214.045 35.216C214.045 34.8 214.237 33.872 214.621 32.432C216.189 26.928 217.277 22.608 217.885 19.472C219.229 12.656 219.901 6.912 219.901 2.24Z" fill="black"/>
</svg>
